<?xml version="1.0" standalone="no"?><!DOCTYPE svg PUBLIC "-//W3C//DTD SVG 1.1//EN" "http://www.w3.org/Graphics/SVG/1.1/DTD/svg11.dtd"><svg class="icon" width="200px" height="200.00px" viewBox="0 0 1024 1024" version="1.1" xmlns="http://www.w3.org/2000/svg"><path fill="#f6f6f6" d="M267.81 352.57c-3.91 0-7.88-0.86-11.63-2.69-13.18-6.44-18.67-22.35-12.24-35.54 28.83-59.08 78.65-104.04 136.68-123.33 13.91-4.67 28.98 2.91 33.6 16.83 4.63 13.92-2.91 28.98-16.83 33.6-44.56 14.82-83.07 49.88-105.67 96.21-4.61 9.43-14.07 14.92-23.91 14.92zM585.76 592.92c-11.65 0-23.59-0.04-35.8-0.08l-37.96-0.06-37.96 0.06c-149.18 0.42-256.62 0.73-316.35-58.83-29.08-28.99-43.21-69.18-43.21-122.85 0-168.78 148.7-343.35 397.52-343.35s397.5 174.57 397.5 343.35c0 53.67-14.13 93.86-43.21 122.85-54.83 54.68-150.04 58.91-280.53 58.91z m-73.75-53.29l38.11 0.06c131.07 0.42 234.55 0.66 278.65-43.31 18.57-18.52 27.59-46.39 27.59-85.22 0-142.65-128.8-290.2-344.35-290.2-215.56 0-344.37 147.55-344.37 290.2 0 38.83 9.02 66.7 27.59 85.22 44.12 43.99 147.64 43.77 278.67 43.31l38.11-0.06zM559.21 956.19H464.8c-47.74 0-92.91-19.5-123.92-53.51-28.57-31.32-42.21-71.21-38.42-112.31l0.93-4.96 71.16-245.64h274.92l72.08 250.6c3.8 41.1-9.84 80.97-38.41 112.31-31.02 34.01-76.19 53.51-123.93 53.51zM355.19 797.61c-1.67 25.21 7.14 49.73 24.95 69.25 20.97 22.99 51.83 36.18 84.66 36.18h94.42c32.83 0 63.69-13.18 84.66-36.18 17.82-19.54 26.61-44.04 24.94-69.24l-59.29-204.7H414.49l-59.3 204.69z" /></svg>