<?xml version="1.0" standalone="no"?><!DOCTYPE svg PUBLIC "-//W3C//DTD SVG 1.1//EN" "http://www.w3.org/Graphics/SVG/1.1/DTD/svg11.dtd"><svg class="icon" width="200px" height="200.00px" viewBox="0 0 1024 1024" version="1.1" xmlns="http://www.w3.org/2000/svg"><path fill="#f6f6f6" d="M411.84 929.61c-19.95 0-40.06-0.94-60.32-2.81-124.35-11.55-233.1-58.78-277.06-120.31-11.96-16.72-14.16-38.73-5.77-57.41l9.86-21.92c10.36-23.08 35.11-36.82 60.05-33.63 222.12 29.28 406.87-28.19 520.23-161.77 87.99-103.69 121.87-246.46 86.32-363.73-5.68-18.75 3.42-39.12 21.17-47.36l48.52-22.57c12.4-5.73 26.59-4.77 38.05 2.57 11.44 7.33 18.22 19.8 18.17 33.36-0.16 33.71 16.09 98.01 34.2 135.72 100.06 165.68 62.66 351.71-102.72 510.59-100.31 96.36-240.23 149.27-390.7 149.27z m-280.7-183.34c-1.69 0-3.3 1.05-4.04 2.69l-9.86 21.95c-0.68 1.51-0.47 3.24 0.53 4.64 28.98 40.57 114.01 86.67 238.67 98.24 157.52 14.65 306.77-33.41 409.22-131.84 85.91-82.53 212.28-250.17 93.45-445.65l-1.18-2.16c-18.6-38.13-34.65-96.74-38.96-139.26L799.35 164c35.92 133.57-1.82 286.57-99.93 402.18-72.66 85.63-243.14 222.93-567.74 180.1-0.19 0-0.36-0.01-0.54-0.01zM268.77 752.04c-95.96-29.41-144.96-91.75-169.17-138.87-8.63-16.76-7.71-37.01 2.38-52.85l10.96-17.18c12.5-19.57 36.75-28.82 58.99-22.52 182.82 51.8 345.08 26.15 456.9-72.25 85.15-74.96 130.49-187.86 115.52-287.63-2.63-17.56 7.56-34.61 23.94-40.77l36.7-17.28 22.69 48.16-29.15 13.72C811.46 280.2 760.62 403.26 664 488.31c-72.89 64.14-235.64 160.32-506.58 83.51l-10.54 17.11c19.61 37.91 59.31 88.24 137.5 112.21l-15.61 50.9z" /></svg>