<?xml version="1.0" standalone="no"?><!DOCTYPE svg PUBLIC "-//W3C//DTD SVG 1.1//EN" "http://www.w3.org/Graphics/SVG/1.1/DTD/svg11.dtd"><svg class="icon" width="200px" height="200.00px" viewBox="0 0 1024 1024" version="1.1" xmlns="http://www.w3.org/2000/svg"><path d="M542.933 91.73c-35.072 1.05-43.13 49.63-10.276 61.95l5.605 2.156c169.05 66.762 249.744 253.462 187.66 421.462l-1.372 3.615-204.213-205.165 76.446-76.705c12.48-12.523 12.44-32.795-0.09-45.269l-61.89-61.604c-12.292-12.236-32.062-12.434-44.596-0.539l-0.378 0.365c-22.908 22.452-62.459 29.903-89.828 19.327l-0.825-0.326a32 32 0 0 0-34.605 7.055L167.53 415.198c-12.507 12.515-12.485 32.805 0.05 45.292L279.17 571.65l0.377 0.37c12.51 12.065 32.419 11.945 44.782-0.361l51.727-51.491 203.953 204.614-1.19 0.425c-47.517 16.715-100.144 20.81-152.97 11.344-72.444-12.981-141.923-50.684-199.872-110.88-12.408-12.89-32.974-13.102-45.645-0.471l-62.823 62.623c-11.027 10.992-12.528 28.303-3.622 41.018l11.02 15.388c2.827 3.939 5.79 8.058 8.314 11.552l4.322 5.952-1.031 0.505C105.447 777.715 84 810.512 84 847.358 84 898.412 125.601 940 176.673 940l1.532-0.013c40.286-0.658 75.196-27.224 87.657-63.63l0.097-0.295 2.838 1.624c145.313 82.144 299.067 83.687 455.934-0.513l5.286-2.87 55.33 55.521c12.427 12.472 32.596 12.56 45.133 0.198l99.453-98.064 0.375-0.375c12.227-12.455 12.226-32.468-0.098-44.92l-55.215-55.791 1.296-2.16c43.53-73.067 66.271-148.222 68.617-222.401 2.416-76.404-16.979-149.869-55-214.43C816.333 166.946 680.11 87.62 542.933 91.73z m169.169 109.362l2.959 1.783c48.046 29.288 89.94 70.95 119.7 121.483 31.961 54.273 48.207 115.807 46.179 179.93-2.221 70.25-26.19 142.385-73.256 213.31l-0.249 0.38c-8.104 12.592-6.394 29.152 4.167 39.824l50.567 51.093-53.959 53.206-50.169-50.343c-10.262-10.299-26.16-12.372-38.707-5.101l-0.391 0.23c-157.706 94.372-306.531 90.704-449.886-4.063l-4.343-2.9c-12.626-8.515-29.503-6.952-40.351 3.736l-9.646 9.504a32 32 0 0 0-9.095 28.114l0.165 0.913 0.653 3.371c0.138 0.723 0.218 1.189 0.266 1.528l0.024 0.181 0.002-0.197c0 15.38-13.89 28.926-30.059 28.926C160.943 876 148 863.062 148 847.357v-0.494c0.26-15.776 12.765-29.207 27.072-30.006l0.211-0.011 3.023 0.667 0.306 0.066c1.17 0.247 2.246 0.454 3.37 0.637l0.49 0.075a32.001 32.001 0 0 0 25.064-7.028l1.525-1.288c1.11-0.943 2.177-1.867 3.23-2.809l0.763-0.688c2.354-2.142 4.165-3.933 5.962-6.12 10.308-12.54 9.58-30.786-1.622-42.465L216 756.47c-7.88-8.097-15.617-17.475-24.982-30.06l-1.933-2.615a943.837 943.837 0 0 1-3.262-4.487l-3.868-5.362 21.256-21.188 1.458 1.324c62.058 56.003 134.33 91.927 209.89 105.467 82.823 14.842 165.961 1.959 236.141-36.573 18.676-10.254 22.304-35.552 7.263-50.641L398.81 452.339l-0.377-0.372c-12.498-12.139-32.468-12.054-44.863 0.283l-51.808 51.569-66.304-66.05 160.885-160.972 1.023 0.22c36.486 7.6 77.736 0.761 111.085-19.198l0.985-0.599 19.414 19.324-76.341 76.601c-12.44 12.483-12.447 32.674-0.015 45.164l259.24 260.448c15.167 15.237 40.744 11.482 50.891-7.472 81.332-151.917 55.557-326.802-46.452-445.536l-4.07-4.657z" fill="#474747" /><path d="M178 846m-99 0a99 99 0 1 0 198 0 99 99 0 1 0-198 0Z" fill="#1B69FD" /></svg>