<?xml version="1.0" standalone="no"?><!DOCTYPE svg PUBLIC "-//W3C//DTD SVG 1.1//EN" "http://www.w3.org/Graphics/SVG/1.1/DTD/svg11.dtd"><svg class="icon" width="200px" height="200.00px" viewBox="0 0 1024 1024" version="1.1" xmlns="http://www.w3.org/2000/svg"><path d="M802 515c86.709 0 157 70.291 157 157s-70.291 157-157 157c-59.48 0-111.233-33.075-137.872-81.837l-292.18 81.159-19.27-69.373 292.424-81.229A159.82 159.82 0 0 1 645 672c0-86.709 70.291-157 157-157z m0 72c-46.944 0-85 38.056-85 85s38.056 85 85 85 85-38.056 85-85-38.056-85-85-85zM457 65c107.42 0 194.5 87.08 194.5 194.5S564.42 454 457 454c-19.163 0-37.678-2.771-55.168-7.935L296.01 680.62l-65.63-29.61 107.323-237.88C291.94 377.542 262.5 321.96 262.5 259.5 262.5 152.08 349.58 65 457 65z m0 72c-67.655 0-122.5 54.845-122.5 122.5S389.345 382 457 382s122.5-54.845 122.5-122.5S524.655 137 457 137z" fill="#474747" /><path d="M237 610c-96.098 0-174 77.902-174 174s77.902 174 174 174 174-77.902 174-174-77.902-174-174-174z m0 72c56.333 0 102 45.667 102 102s-45.667 102-102 102-102-45.667-102-102 45.667-102 102-102z" fill="#1B69FD" /></svg>