<?xml version="1.0" standalone="no"?><!DOCTYPE svg PUBLIC "-//W3C//DTD SVG 1.1//EN" "http://www.w3.org/Graphics/SVG/1.1/DTD/svg11.dtd"><svg class="icon" width="200px" height="200.00px" viewBox="0 0 1024 1024" version="1.1" xmlns="http://www.w3.org/2000/svg"><path d="M941.223 213.323c-12.216-18.559-30.02-30.313-49.944-33.11-19.997-3.315-84.66-13.447-108.986-11.506-22.862 1.84-55.092 14.396-75.226 25.885l-151.375 88.015c-26.526-6.199-89.862-21.164-153.036-35.729-48.56-11.234-87.498-20.123-115.946-26.474-59.288-13.21-60.738-13.007-67.881-12.003-7.454 1.048-18.108 4.868-26.697 17.375-9.82 14.263-21.704 52.895-17.237 71.91 3.19 14.44 10.998 27.177 21.508 35.1L346.81 445.973 229.903 546.359l-102.89-46.262c-7.549-3.374-15.101-4.53-22.659-3.469-17.91 2.518-26.266 16.681-33.019 27.98-3.843 6.453-7.184 12.73-7.347 13.07l-0.505 0.916-0.49 1.02c-11.04 24.362-7.253 56.566 9.11 78.344l91.235 121.083 0.118 0.089c12.56 16.504 30.107 24.915 46.982 22.543 5.073-0.713 10.118-2.372 14.915-5.053l0.192-0.132L911.61 365.435c22.783-12.918 38.588-39.428 42.695-71.052 6.85-27.891 2.096-57.954-13.081-81.06z m-52.113 65.676l-0.79 2.649-0.345 2.798c-1.433 13.102-6.922 21.382-9.573 22.812L209.104 689.16l-83.656-111.33c-0.915-1.247-1.56-3.588-1.866-5.766L241.272 625l212.394-182.441-212.227-159.776c0.254-1.199 0.596-2.516 0.821-3.922 57.832 12.492 211.232 48.248 311.074 71.861l12.994 3.038 174.155-101.353c15.444-8.832 37.926-16.433 47.112-17.195 11.286-0.846 57.197 4.968 93.301 10.891l0.976 0.18c4.005 1.447 11.976 16.083 7.238 32.716z" fill="#474747" /><path d="M888.703 475.722c28.465-16.328 62.035 10.577 52.708 41.68l-0.296 0.943-47.764 146.056c-6.21 18.992-26.647 29.355-45.645 23.146-18.809-6.147-29.157-26.231-23.335-45.061l0.18-0.57 18.504-56.584L270.21 913.934c-17.164 9.845-39.013 4.075-49.101-12.858l-0.302-0.516c-9.849-17.158-4.077-39.001 12.862-49.086l0.516-0.302 654.518-375.45z" fill="#1B69FD" /></svg>