<?xml version="1.0" standalone="no"?><!DOCTYPE svg PUBLIC "-//W3C//DTD SVG 1.1//EN" "http://www.w3.org/Graphics/SVG/1.1/DTD/svg11.dtd"><svg class="icon" width="200px" height="200.00px" viewBox="0 0 1024 1024" version="1.1" xmlns="http://www.w3.org/2000/svg"><path fill="#f6f6f6" d="M849.8 486.5c-5.39-74.58-35.19-142.33-81.4-195.71-0.6-0.72-1.2-1.44-1.92-2.15-9.7-11.25-20.35-21.91-31.72-31.84l-2.15-1.8c-52.91-45.49-120.06-75.05-193.8-80.68-0.96-0.12-1.92-0.12-2.87-0.24-7.9-0.72-15.92-0.96-23.94-0.96-7.06 0-14.13 0.24-21.07 0.72-0.96 0-1.92 0.12-2.87 0.24-74.22 5.03-141.97 34.35-195.36 79.84-0.12 0.12-0.24 0.24-0.36 0.24-12.09 10.29-23.46 21.43-33.88 33.28-0.12 0.12-0.24 0.24-0.24 0.36-47.76 53.87-78.53 122.7-84.03 198.71-0.72 8.38-1.08 16.88-1.08 25.5 0 7.54 0.24 14.96 0.84 22.38 4.91 75.65 34.71 144.6 81.52 198.59 0.48 0.48 0.84 1.08 1.32 1.56a319.435 319.435 0 0 0 32.44 32.44c0.48 0.48 1.08 0.84 1.56 1.32 53.75 46.56 122.1 76.37 197.27 81.52 0.96 0.12 1.91 0.24 2.87 0.24 6.94 0.48 14.01 0.72 21.07 0.72 8.02 0 16.04-0.24 23.94-0.96 0.96-0.12 1.91-0.12 2.87-0.24 75.89-5.87 144.84-36.75 198.47-84.63 0.12-0.24 0.36-0.36 0.48-0.48 11.73-10.53 22.74-21.79 32.8-33.88 0.24-0.12 0.36-0.36 0.48-0.48 45.37-53.51 74.22-121.38 79-195.72 0.6-7.42 0.84-14.84 0.84-22.38 0-8.63-0.36-17.13-1.08-25.51z m-47.76 47.88c-4.55 61.17-28.37 117.07-65.12 161.84-0.12 0.24-0.36 0.36-0.6 0.6-9.94 12.21-20.95 23.46-32.68 33.76-0.24 0.12-0.36 0.36-0.6 0.6-44.77 39.02-101.63 64.64-164.23 70.39-0.96 0.12-1.92 0.24-2.87 0.24-7.9 0.84-15.8 1.08-23.94 1.08-7.06 0-14.13-0.24-21.07-0.84-0.96-0.12-1.92-0.12-2.87-0.24-62.01-4.91-118.51-29.57-163.28-67.51-0.48-0.48-1.08-0.84-1.56-1.32a260.236 260.236 0 0 1-32.44-32.44c-0.36-0.48-0.84-0.96-1.2-1.44-38.31-45.25-62.84-102.23-67.63-164.71-0.72-7.42-0.96-14.84-0.96-22.38 0-8.62 0.36-17.12 1.2-25.5 5.39-62.72 30.76-119.7 69.67-164.59 0.24-0.24 0.48-0.36 0.6-0.6 10.29-11.85 21.55-22.98 33.64-32.92 0.24-0.24 0.36-0.48 0.6-0.6 44.53-36.99 100.31-60.81 161.36-65.72 0.96-0.12 1.91-0.12 2.87-0.24 6.94-0.6 14.01-0.84 21.07-0.84 8.14 0 16.04 0.24 23.94 1.08 0.96 0 1.91 0.12 2.87 0.24 60.93 5.51 116.35 29.93 160.52 67.27 0.48 0.36 0.96 0.84 1.44 1.2 11.73 9.94 22.62 20.83 32.44 32.68 0.48 0.48 0.84 0.84 1.2 1.32 37.71 44.53 62.13 100.31 67.39 161.72 0.84 8.38 1.2 16.88 1.2 25.5 0 7.53-0.24 14.95-0.96 22.37zM512 74.96C271.04 74.96 74.96 271.04 74.96 512S271.04 949.04 512 949.04 949.04 752.97 949.04 512 752.96 74.96 512 74.96z m0 826.2c-214.63 0-389.16-174.65-389.16-389.16 0-214.63 174.53-389.16 389.16-389.16 214.51 0 389.16 174.53 389.16 389.16 0 214.51-174.65 389.16-389.16 389.16zM850.85 512c0 7.54-0.24 14.96-0.84 22.38H173.92c-0.6-7.42-0.84-14.84-0.84-22.38 0-8.62 0.36-17.12 1.08-25.5h675.61c0.72 8.38 1.08 16.88 1.08 25.5zM535.94 174.08V849.8c-7.9 0.72-15.92 0.96-23.94 0.96-7.06 0-14.13-0.24-21.07-0.72-0.96 0-1.92-0.12-2.87-0.24V174.08c0.96-0.12 1.91-0.24 2.87-0.24 6.94-0.48 14.01-0.72 21.07-0.72 8.02 0 16.04 0.24 23.94 0.96zM770.56 730.58c-10.06 12.09-21.07 23.34-32.8 33.88-0.12 0.12-0.36 0.24-0.48 0.48l-34.24-33.76-1.32-1.32L536.9 565.87l-0.96-0.96-22.15-22.14-8.5-8.38-16.28-16.28-0.96-0.96-8.26-8.14-22.62-22.5-0.72-0.72-164.58-163.88-1.32-1.32-32.32-32.8c0-0.12 0.12-0.24 0.24-0.36 10.41-11.85 21.79-22.98 33.88-33.28l32.44 32.92 1.32 1.32 161.96 161.24 0.96 0.96 24.66 24.54 11.37 11.37 10.89 10.77 0.96 0.96L547.56 509l24.9 24.66 0.72 0.72L735.02 695.5l1.32 1.32 34.22 33.76zM766.49 288.63l-33.28 34.83-0.72 0.72-161.72 161.6-33.88 33.88-0.96 0.96-13.17 13.05-0.72 0.72-8.26 8.38L489 567.43l-0.96 0.96-164.81 164.58-34 34c-11.49-9.93-22.38-20.83-32.44-32.44-0.48-0.48-0.84-1.08-1.32-1.56l33.4-33.16 0.72-0.72 164.83-164.71 0.72-0.72 32.92-32.92 0.96-0.96 13.29-13.29 0.72-0.72 10.65-10.65 22.27-22.26 0.96-0.96 161.96-161.84 0.48-0.48L732.61 255l2.15 1.8c11.38 9.93 22.03 20.58 31.73 31.83z" /></svg>