<?xml version="1.0" standalone="no"?><!DOCTYPE svg PUBLIC "-//W3C//DTD SVG 1.1//EN" "http://www.w3.org/Graphics/SVG/1.1/DTD/svg11.dtd"><svg class="icon" width="200px" height="200.00px" viewBox="0 0 1024 1024" version="1.1" xmlns="http://www.w3.org/2000/svg"><path fill="#f6f6f6" d="M532.73 242.26c-8.09 0-16.22-0.66-24.34-2l-17.87-2.95-0.65-18.11c-1.59-44.5 16.66-86.86 50.06-116.23 33.39-29.35 77.69-42.03 121.67-34.77l17.87 2.95 0.65 18.12c1.57 44.49-16.67 86.85-50.05 116.22h-0.01c-27.22 23.93-61.72 36.77-97.33 36.77zM634.7 110.53c-24.01 0.61-47.15 9.54-65.53 25.7s-30.21 37.97-33.89 61.7c24.01-0.61 47.15-9.54 65.53-25.7 18.4-16.16 30.22-37.97 33.89-61.7zM446.3 960.13c-53.88 0-109.54-37.18-135.83-61.24-64.83-59.35-93.99-155.25-80.01-263.11 6.67-51.42 24.81-100.34 57.12-153.95l12.09-19.87c15.3-25.12 28.77-47.88 38.84-72.13 6.01-14.48 9.85-30.07 13.92-46.58 4.92-20 10.01-40.69 19.42-60.68 21.89-46.5 73.19-74.27 137.21-74.27h0.04c43.12 0 77.11 8.97 103.94 27.44 40.26 27.75 50.54 74.99 58.04 109.48 7.58 34.84 20.61 65.93 40.99 97.87l6.28 9.8c21.62 33.67 43.98 68.49 57.43 109.89 11.49 35.38 18.13 68.26 20.28 100.5 3.54 52.68-1.46 129.33-45.27 195.47-27.24 41.11-68.28 72.45-115.56 88.24-7.98 2.66-16.46 4.94-25.2 6.77-18.06 3.76-42.78 8.89-67.47 4.45-30.18-5.46-62.9-1.9-79.74 0.68-5.47 0.85-10.98 1.24-16.52 1.24zM337.49 484.98l-11.98 19.7c-29.03 48.19-45.28 91.65-51.13 136.78-12.1 93.36 11.95 175.29 66 224.75 30.25 27.69 81.16 54.27 115.71 48.91 23.88-3.69 59.63-6.75 94.31-0.51 15.01 2.72 31.8-0.3 50.59-4.22 7.04-1.47 13.84-3.29 20.19-5.42 38.52-12.87 70.57-37.3 92.69-70.69 36.97-55.82 41.08-122.2 38-168.05-1.91-28.55-7.87-57.92-18.23-89.77-11.68-35.97-31.55-66.91-52.58-99.66l-6.34-9.89c-23.29-36.49-38.21-72.17-46.94-112.28-7.69-35.36-16-65.96-39.9-82.43-19.18-13.2-44.96-19.62-78.81-19.62h-0.03c-17.44 0-75.81 3.54-97.15 48.84-7.54 16-11.88 33.68-16.49 52.41-4.28 17.39-8.7 35.37-16 52.97-11.26 27.17-25.65 51.49-41.91 78.18zM501.76 244.57c-0.67 0-1.34-0.03-2.02-0.09-12.19-1.11-21.16-11.88-20.06-24.06 6.91-76-16.02-98.48-60.76-113.39-11.6-3.87-17.87-16.4-14-28.01 3.87-11.59 16.38-17.92 28.01-14 71.66 23.88 98.83 71.55 90.87 159.4-1.06 11.52-10.71 20.15-22.04 20.15zM638.28 833.05c-6.82 0-13.55-3.14-17.88-9.05-7.22-9.87-5.09-23.72 4.77-30.96 33.3-24.4 45.39-62.78 36.99-117.32-1.86-12.09 6.42-23.4 18.51-25.26 12.04-1.82 23.39 6.42 25.26 18.51 11.01 71.42-7.35 125.18-54.57 159.79a22.1 22.1 0 0 1-13.08 4.29z" /></svg>