<?xml version="1.0" standalone="no"?><!DOCTYPE svg PUBLIC "-//W3C//DTD SVG 1.1//EN" "http://www.w3.org/Graphics/SVG/1.1/DTD/svg11.dtd"><svg class="icon" width="200px" height="200.00px" viewBox="0 0 1024 1024" version="1.1" xmlns="http://www.w3.org/2000/svg"><path fill="#f6f6f6" d="M858.31 208.58h-165.5l0.85-28.29c0.38-27.08-9.23-52.8-27.06-72.4-18.41-20.24-43.3-31.6-70.06-31.98l-164.8-2.34c-26.75-0.29-51.96 10.27-70.94 29.99-18.37 19.09-28.71 44.52-29.08 71.05l-1.03 33.96h-165c-18.96 0-34.33 15.37-34.33 34.33s15.37 34.33 34.33 34.33h31.54v570.19c0 56.8 46.2 103 103 103h423.55c56.8 0 103-46.2 103-103V277.24h31.53c18.96 0 34.33-15.37 34.33-34.33s-15.37-34.33-34.33-34.33z m-457.94-32.44c0.13-9.6 3.65-18.47 9.91-24.96 5.66-5.87 12.4-9.42 20.49-8.94l164.81 2.34c7.55 0.1 14.74 3.48 20.22 9.51 6.07 6.67 9.34 15.63 9.21 24.68l-0.89 29.81H399.39l0.98-32.44z m357.74 671.3c0 18.93-15.4 34.33-34.33 34.33H300.23c-18.93 0-34.33-15.4-34.33-34.33v-570.2h492.22v570.2z"  /><path fill="#f6f6f6" d="M364.67 768.85c18.96 0 34.33-15.37 34.33-34.33V454.33c0-18.96-15.37-34.33-34.33-34.33s-34.33 15.37-34.33 34.33v280.19c0 18.96 15.37 34.33 34.33 34.33zM512 768.85c18.96 0 34.33-15.37 34.33-34.33V454.33c0-18.96-15.37-34.33-34.33-34.33s-34.33 15.37-34.33 34.33v280.19c0 18.96 15.37 34.33 34.33 34.33zM659.33 768.85c18.96 0 34.33-15.37 34.33-34.33V454.33c0-18.96-15.37-34.33-34.33-34.33S625 435.37 625 454.33v280.19c0 18.96 15.37 34.33 34.33 34.33z"  /></svg>