<?xml version="1.0" standalone="no"?><!DOCTYPE svg PUBLIC "-//W3C//DTD SVG 1.1//EN" "http://www.w3.org/Graphics/SVG/1.1/DTD/svg11.dtd"><svg class="icon" width="200px" height="200.00px" viewBox="0 0 1024 1024" version="1.1" xmlns="http://www.w3.org/2000/svg"><path d="M941.31 444L785.543 174.207c-24.294-42.078-69.19-68-117.779-68h-311.53c-48.588 0-93.485 25.922-117.78 68L82.692 444c-24.294 42.079-24.294 93.921 0 136l155.765 269.793c24.294 42.078 69.19 68 117.779 68h311.53c48.588 0 93.485-25.922 117.78-68L941.308 580c24.294-42.079 24.294-93.921 0-136z m-62.354 100L723.19 813.793a64 64 0 0 1-55.426 32h-311.53a64 64 0 0 1-55.426-32L145.044 544a64 64 0 0 1 0-64L300.81 210.207a64 64 0 0 1 55.426-32h311.53a64 64 0 0 1 55.426 32L878.956 480a64 64 0 0 1 0 64z" fill="#474747" /><path d="M513 310c-113.11 0-205 90.776-205 203s91.89 203 205 203 205-90.776 205-203-91.89-203-205-203z m0 80c69.144 0 125 55.179 125 123s-55.856 123-125 123-125-55.179-125-123 55.856-123 125-123z" fill="#1B69FD" /></svg>