<?xml version="1.0" standalone="no"?><!DOCTYPE svg PUBLIC "-//W3C//DTD SVG 1.1//EN" "http://www.w3.org/Graphics/SVG/1.1/DTD/svg11.dtd"><svg class="icon" width="200px" height="200.00px" viewBox="0 0 1024 1024" version="1.1" xmlns="http://www.w3.org/2000/svg"><path fill="#f6f6f6" d="M948.76 498.08L572.93 122.72c-16.65-16.63-38.75-25.77-62.27-25.77h-0.17c-23.57 0.04-45.71 9.28-62.33 26L75.24 498.17l40.72 40.47 33.68-33.89v329.53c0 51.15 37.18 92.77 82.88 92.77H791.6c45.71 0 82.89-41.62 82.89-92.77V505.07l33.67 33.63 40.6-40.62z m-131.67 336.2c0 19.16-11.66 35.35-25.47 35.35H232.53c-13.8 0-25.46-16.19-25.46-35.35v-387.3l281.82-283.56c5.79-5.82 13.5-9.04 21.71-9.06h0.06c8.19 0 15.89 3.19 21.69 8.98l284.74 284.38v386.56z"  /><path fill="#f6f6f6" d="M512 588.14c-83.96 0-152.28-68.31-152.28-152.28h57.42c0 52.3 42.55 94.86 94.86 94.86s94.86-42.55 94.86-94.86h57.42c0 83.97-68.31 152.28-152.28 152.28z"  /></svg>