<?xml version="1.0" standalone="no"?><!DOCTYPE svg PUBLIC "-//W3C//DTD SVG 1.1//EN" "http://www.w3.org/Graphics/SVG/1.1/DTD/svg11.dtd"><svg class="icon" width="200px" height="200.00px" viewBox="0 0 1024 1024" version="1.1" xmlns="http://www.w3.org/2000/svg"><path fill="#f6f6f6" d="M655.96 832.18c-9.97 0-19.27-6.32-22.58-16.3-4.15-12.47 2.59-25.94 15.07-30.08 39.9-13.28 74.39-44.68 94.62-86.16 5.75-11.81 20-16.73 31.83-10.96 11.81 5.76 16.72 20.01 10.96 31.83-25.81 52.91-70.42 93.17-122.39 110.45-2.49 0.83-5.02 1.22-7.51 1.22zM513.14 552.16c-0.48 0-0.96-0.01-1.46-0.02-9.71-0.36-21.61-6.55-25.83-22.89-12.97-50.2-34.95-79.87-47.33-93.44-19.1 9.01-58.45 30.66-107.15 74.58-7.12 6.41-17.41 7.92-26.02 3.88a23.813 23.813 0 0 1-13.7-22.46c2.03-53.15 12.92-86.74 41.41-118.06-30.27-1.63-69.49 4.57-101.82 13.51-10.86 3-22.36-2.02-27.5-12.06-5.16-10.03-2.57-22.3 6.2-29.39 113.03-91.31 190.7-104.38 280.51-111.99 13.04-1.06 24.61 8.61 25.73 21.71 1.1 13.1-8.61 24.61-21.71 25.73-61.06 5.16-111.14 12.15-171.19 44.64 25.81 0.12 51.27 4.18 70.45 15.85a23.82 23.82 0 0 1 11.4 19c0.44 7.81-3 15.35-9.19 20.15-24.17 18.73-38.35 33.91-46.53 53.5 50.81-36.99 84.93-48.54 86.77-49.14 7.37-2.44 15.5-1.1 21.73 3.57 1.67 1.25 33.83 25.91 58.31 82.48 7.47-19.92 14.89-41.9 18.45-52.46 3.24-9.61 5.73-16.93 7.01-20.15 4.23-10.68 15.44-16.78 26.75-14.58 38.87 7.69 68.08 26.06 102.61 67.39-1.81-28.11-12.34-58.51-28.91-75.8a23.82 23.82 0 0 1-5.65-23.17c2.41-8.18 8.99-14.46 17.29-16.44 21.26-5.09 42.09-7.16 61.57-6.97-66.05-38.45-123.16-43.23-158.91-46.22-13.1-1.1-22.82-12.61-21.73-25.7 1.1-13.08 12.5-22.98 25.7-21.73 53.71 4.5 165.47 13.86 281.08 134.23 8.96 9.33 8.83 24.11-0.3 33.28-9.11 9.16-23.9 9.37-33.27 0.44-10.34-9.83-51.65-30.27-107.96-26.41 22.18 44.97 26.01 104.6 5.61 143.12a23.797 23.797 0 0 1-19.6 12.62c-8.27 0.67-16.23-3.36-20.97-10.18-38.08-54.81-61.83-76.28-86.07-86.06-32.41 95.92-43.49 115.64-65.78 115.64zM553.34 372.45h-71.29c-7.44 0-14.44-3.47-18.94-9.39a23.765 23.765 0 0 1-3.99-20.76c16.31-58.84 20.39-135.13 11.79-220.61-1.05-10.36 2.08-20.16 8.8-27.59 8.96-9.9 22.97-14.71 42.84-14.71 42.45 0 48.07 27.5 48.79 35.94 0.91 10.69 1.87 21.38 2.84 32.04 6.65 73.75 12.92 143.42 2.63 205.21-1.91 11.45-11.84 19.87-23.47 19.87z m-41.22-47.6h20.39c5.24-51.44-0.1-110.81-5.74-173.22-0.73-8.19-1.48-16.41-2.2-24.62-1.62-0.07-3.78-0.02-5.33 0.05 6.64 73.67 4.18 141.19-7.12 197.79zM513.14 944.62c-237.52 0-403.41-147.78-403.41-359.39 0-201.76 153.74-342.83 382.56-351.06 13.56-0.27 24.18 9.81 24.65 22.93 0.46 13.14-9.8 24.17-22.93 24.65-201.38 7.23-336.68 129.19-336.68 303.49 0 183.58 146.32 311.79 355.81 311.79 208.15 0 353.52-128.21 353.52-311.79 0-165.9-119.93-284.29-305.53-301.63-13.1-1.22-22.71-12.82-21.49-25.9s12.86-22.79 25.9-21.49C777.39 256 914.26 393 914.26 585.23c0 211.61-164.94 359.39-401.12 359.39z" /></svg>