<?xml version="1.0" standalone="no"?><!DOCTYPE svg PUBLIC "-//W3C//DTD SVG 1.1//EN" "http://www.w3.org/Graphics/SVG/1.1/DTD/svg11.dtd"><svg class="icon" width="200px" height="200.00px" viewBox="0 0 1024 1024" version="1.1" xmlns="http://www.w3.org/2000/svg"><path fill="#f6f6f6" d="M512.46 918.35c-122.16 0-244.64-24.42-385.43-73.26-13.26-4.59-23.76-15.04-28.8-28.66-5.53-14.93-4.05-32.05 3.96-45.8l373.95-642.31c8.28-14.21 23.01-22.68 39.44-22.68h0.18c16.51 0.06 31.26 8.66 39.45 23l366.86 641.85c7.8 13.66 9.18 30.6 3.68 45.34-5.11 13.7-15.72 24.24-29.11 28.94-139.72 49.05-261.79 73.57-384.18 73.58z m3.12-768.63c-0.89 0-1.17 0.48-1.35 0.77L140.28 792.81c-1.39 2.39-1.69 5.74-0.73 8.31 0.71 1.92 1.61 2.23 1.92 2.34 274.77 95.32 468.55 95.24 740.58-0.27 0.39-0.14 1.58-0.56 2.4-2.77 0.95-2.55 0.7-5.7-0.65-8.06L516.94 150.51c-0.17-0.29-0.45-0.77-1.36-0.79 0.01 0 0.01 0 0 0zM518.89 799.63c-121.09 0-243.56-26.09-369.2-78.3l16.92-40.7c239.69 99.59 467.28 99.64 695.71 0.14l17.6 40.42c-120.05 52.28-239.84 78.44-361.03 78.44zM542.36 350.78c0 17.62-10.71 23.2-23.93 23.2-13.21 0-23.93-5.58-23.93-23.2 0-17.62 10.71-52.93 23.93-52.93 13.22 0.01 23.93 35.32 23.93 52.93zM447.03 472.66c-4.95 16.91-16.8 19.26-29.48 15.55-12.68-3.71-21.4-12.08-16.45-28.99 4.95-16.91 25.15-47.79 37.83-44.08s13.05 40.61 8.1 57.52zM625.93 466.79c4.24 17.1-4.82 25.1-17.64 28.28-12.83 3.18-24.57 0.34-28.8-16.76-4.24-17.1-2.33-53.95 10.49-57.13 12.82-3.19 31.71 28.5 35.95 45.61zM376.16 626.34c-5.41 16.77-17.31 18.8-29.89 14.74-12.58-4.05-21.06-12.65-15.65-29.42s26.43-47.09 39.01-43.03c12.57 4.05 11.94 40.94 6.53 57.71zM548.96 619.72c0 17.62-10.71 23.2-23.93 23.2-13.21 0-23.93-5.58-23.93-23.2s10.71-52.93 23.93-52.93c13.22 0 23.93 35.31 23.93 52.93zM710.78 610.61c6.04 16.55-2.1 25.47-14.51 30s-24.39 2.96-30.43-13.58-8.1-53.39 4.32-57.92 34.57 24.95 40.62 41.5z" /></svg>