<?xml version="1.0" standalone="no"?><!DOCTYPE svg PUBLIC "-//W3C//DTD SVG 1.1//EN" "http://www.w3.org/Graphics/SVG/1.1/DTD/svg11.dtd"><svg class="icon" width="200px" height="200.00px" viewBox="0 0 1024 1024" version="1.1" xmlns="http://www.w3.org/2000/svg"><path fill="#f6f6f6" d="M406.31 497.52c-21.09 0-38.18-17.09-38.18-38.18v-42.62c0-21.09 17.09-38.18 38.18-38.18s38.18 17.09 38.18 38.18v42.62c0 21.08-17.09 38.18-38.18 38.18zM617.66 497.52c-21.09 0-38.18-17.09-38.18-38.18v-42.62c0-21.09 17.09-38.18 38.18-38.18s38.18 17.09 38.18 38.18v42.62c0 21.08-17.09 38.18-38.18 38.18z"  /><path fill="#f6f6f6" d="M719.05 957.64H304.92c-43.98 0-82.33-25-100.09-65.22-17.75-40.23-10.38-85.41 19.26-117.9l30.65-33.61c-81.41-72.89-129.14-178.3-129.14-288.26 0-109.72 46.9-214.65 128.69-287.9C336 91.57 445.97 56.68 555.84 68.69c175.58 19.4 318.41 160.67 339.61 335.9 15.58 128.72-31.27 252.06-126.17 336.37l30.62 33.56c29.62 32.49 37 77.67 19.25 117.9-17.77 40.23-56.12 65.22-100.1 65.22zM511.57 128.76c-79.95 0-155.39 28.65-215.57 82.55-68.55 61.4-107.88 149.36-107.88 241.33 0 103.33 47.6 198.06 130.6 259.9l27.69 20.62-76.14 83.47c-12.89 14.13-15.97 33.03-8.25 50.53 7.72 17.49 23.76 27.95 42.9 27.95h414.13c19.13 0 35.17-10.45 42.9-27.95 7.73-17.51 4.65-36.4-8.24-50.53l-76.14-83.47 27.69-20.62c94.48-70.41 142.39-182.72 128.14-300.46-17.76-146.73-137.37-265.02-284.42-281.26a344.801 344.801 0 0 0-37.41-2.06z"  /></svg>