<?xml version="1.0" standalone="no"?><!DOCTYPE svg PUBLIC "-//W3C//DTD SVG 1.1//EN" "http://www.w3.org/Graphics/SVG/1.1/DTD/svg11.dtd"><svg class="icon" width="200px" height="200.00px" viewBox="0 0 1024 1024" version="1.1" xmlns="http://www.w3.org/2000/svg"><path fill="#f6f6f6" d="M875.36 714.76l-53.93-88.89a133.633 133.633 0 0 1-19.46-69.45v-202.4c0-159.89-130.07-289.98-289.96-289.98S222.03 194.13 222.03 354.02v202.4c0 24.5-6.73 48.51-19.45 69.45l-52.83 86.88-1.11 2.01c-8.55 17.14-7.63 37.09 2.45 53.39 10.08 16.28 27.53 26 46.68 26H320.7c13.37 93.6 94.05 165.8 191.3 165.8 97.24 0 177.92-72.2 191.29-165.8h122.95c19.15 0 36.59-9.72 46.66-26 10.08-16.28 11.01-36.25 2.46-53.39z m-363.35 190.3c-66.9 0-122.86-47.72-135.63-110.91h271.25c-12.77 63.19-68.72 110.91-135.62 110.91z m-314.13-165.8l51.61-84.88a188.653 188.653 0 0 0 27.43-97.95v-202.4c0-129.63 105.46-235.09 235.09-235.09 129.62 0 235.07 105.46 235.07 235.09v202.4c0 34.56 9.49 68.44 27.45 97.96l51.6 84.87H197.88z" /></svg>