<?xml version="1.0" standalone="no"?><!DOCTYPE svg PUBLIC "-//W3C//DTD SVG 1.1//EN" "http://www.w3.org/Graphics/SVG/1.1/DTD/svg11.dtd"><svg class="icon" width="200px" height="200.00px" viewBox="0 0 1024 1024" version="1.1" xmlns="http://www.w3.org/2000/svg"><path fill="#f6f6f6" d="M290.4 485.22c-106.69 0-193.49-86.8-193.49-193.49s86.8-193.5 193.49-193.5c106.7 0 193.5 86.8 193.5 193.49s-86.8 193.5-193.5 193.5z m0-333.13c-76.99 0-139.63 62.64-139.63 139.63S213.4 431.35 290.4 431.35s139.64-62.64 139.64-139.63-62.65-139.63-139.64-139.63zM846.3 485.22H620.9c-44.55 0-80.79-36.24-80.79-80.79v-225.4c0-44.55 36.24-80.79 80.79-80.79h225.4c44.55 0 80.79 36.24 80.79 80.79v225.4c0 44.55-36.24 80.79-80.79 80.79zM620.89 152.09c-14.85 0-26.93 12.08-26.93 26.93v225.4c0 14.85 12.08 26.93 26.93 26.93h225.4c14.85 0 26.93-12.08 26.93-26.93v-225.4c0-14.85-12.08-26.93-26.93-26.93h-225.4zM403.11 925.77H177.7c-44.55 0-80.79-36.24-80.79-80.79v-225.4c0-44.55 36.24-80.79 80.79-80.79h225.4c44.55 0 80.79 36.24 80.79 80.79v225.4c0.01 44.55-36.23 80.79-80.78 80.79zM177.7 592.65c-14.85 0-26.93 12.08-26.93 26.93v225.4c0 14.85 12.08 26.93 26.93 26.93h225.4c14.85 0 26.93-12.08 26.93-26.93v-225.4c0-14.85-12.08-26.93-26.93-26.93H177.7zM846.3 925.77H620.9c-44.55 0-80.79-36.24-80.79-80.79v-225.4c0-44.55 36.24-80.79 80.79-80.79h225.4c44.55 0 80.79 36.24 80.79 80.79v225.4c0 44.55-36.24 80.79-80.79 80.79zM620.89 592.65c-14.85 0-26.93 12.08-26.93 26.93v225.4c0 14.85 12.08 26.93 26.93 26.93h225.4c14.85 0 26.93-12.08 26.93-26.93v-225.4c0-14.85-12.08-26.93-26.93-26.93h-225.4z" /></svg>