<?xml version="1.0" standalone="no"?><!DOCTYPE svg PUBLIC "-//W3C//DTD SVG 1.1//EN" "http://www.w3.org/Graphics/SVG/1.1/DTD/svg11.dtd"><svg class="icon" width="200px" height="200.00px" viewBox="0 0 1024 1024" version="1.1" xmlns="http://www.w3.org/2000/svg"><path fill="#f6f6f6" d="M825.13 910.91H198.86c-47.3 0-85.78-38.48-85.78-85.78V198.87c0-47.3 38.48-85.78 85.78-85.78h413.05v63.41H198.86c-12.33 0-22.36 10.03-22.36 22.37v626.27c0 12.33 10.03 22.36 22.36 22.36h626.27c12.34 0 22.37-10.03 22.37-22.36V412.08h63.41v413.05c0 47.3-38.48 85.78-85.78 85.78z"  /><path fill="#f6f6f6" d="M679.51 113.09v63.41h121.96L503.91 474.58l44.88 44.8L847.5 220.14v124.35h63.41v-231.4z"  /></svg>