<?xml version="1.0" standalone="no"?><!DOCTYPE svg PUBLIC "-//W3C//DTD SVG 1.1//EN" "http://www.w3.org/Graphics/SVG/1.1/DTD/svg11.dtd"><svg class="icon" width="200px" height="200.00px" viewBox="0 0 1024 1024" version="1.1" xmlns="http://www.w3.org/2000/svg"><path fill="pink" d="M896 128H128a32 32 0 0 0-32 32v576a32 32 0 0 0 32 32h288v-64H160V192h704v512h-256c-8.832 0-16.832 3.584-22.656 9.376l-159.968 160 45.248 45.248L621.248 768H896a32 32 0 0 0 32-32V160a32 32 0 0 0-32-32"  /><path fill="pink" d="M560 448a48 48 0 1 0-95.968-0.032A48 48 0 0 0 560 448M240 448a48 48 0 1 0 95.968 0.032A48 48 0 0 0 240 448M784 448a48 48 0 1 0-95.968-0.032A48 48 0 0 0 784 448"  /></svg>